# xmcd CD database file
#
# Track frame offsets:
#	150
#	11292
#	22419
#	34241
#	44433
#	57400
#	73707
#	84683
#	97920
#	109658
#	122170
#	134367
#	142884
#	158366
#	178078
#	193840
#	204412
#	222519
#
# Disc length: 3508 seconds
#
# Revision: 0
# Processed by: cddbd v1.5.2PL0 Copyright (c) Steve Scherf et al.
# Submitted via: CDex 1.70beta2
#
DISCID=040db212
DTITLE=John Lee Hooker - The Blues ...
DYEAR=2001
DGENRE=Blues
TTITLE0=Boom boom
TTITLE1=What do you say
TTITLE2=I'm mad again
TTITLE3=Want ad blues
TTITLE4=I'm so excited
TTITLE5=Trying to find a woman
TTITLE6=No shoes
TTITLE7=I'm so worried, baby
TTITLE8=Howlin'Wolf
TTITLE9=War is over
TTITLE10=Drug store woman
TTITLE11=You know I love you
TTITLE12=One way ticket
TTITLE13=Half a stranger
TTITLE14=Maudie
TTITLE15=Tupelo
TTITLE16=One Bourbon, one scotch, one beer
TTITLE17=The boogie man
EXTD=YEAR: 2001
EXTT0=
EXTT1=
EXTT2=
EXTT3=
EXTT4=
EXTT5=
EXTT6=
EXTT7=
EXTT8=
EXTT9=
EXTT10=
EXTT11=
EXTT12=
EXTT13=
EXTT14=
EXTT15=
EXTT16=
EXTT17=
PLAYORDER=
